<svg width="38" height="39" viewBox="0 0 38 39" fill="none" xmlns="http://www.w3.org/2000/svg">
<path fill-rule="evenodd" clip-rule="evenodd" d="M19.1031 6.65143C20.1582 6.65143 21.0421 7.3422 21.6136 7.91523C22.2636 8.56676 22.8901 9.45064 23.4349 10.4742C24.1383 11.8008 24.7475 13.4414 25.0898 15.2751C26.0382 14.7813 27.0373 14.3918 28.0698 14.1134C28.8438 13.9108 29.5974 13.7994 30.2663 13.8151C30.8472 13.8292 31.7327 13.9438 32.3702 14.5812C33.0312 15.2422 33.1741 16.2249 33.1285 17.1198C33.0846 17.9487 32.8726 18.9064 32.5241 19.897C32.0906 21.1092 31.5173 22.2668 30.8158 23.3462C31.4876 23.5991 32.1341 23.9145 32.747 24.2882C33.7204 24.8942 34.8038 25.8095 34.8038 27.0607C34.8038 27.618 34.5793 28.0686 34.3814 28.3638C33.7361 29.3371 32.6245 29.9729 31.5914 30.4486C29.9774 31.1912 27.7919 31.7705 25.3834 31.7705C22.9497 31.7705 20.7359 31.1802 19.1031 30.4157C17.4702 31.1802 15.2564 31.7705 12.8228 31.7705C10.4143 31.7705 8.22875 31.1912 6.61471 30.4486C5.5816 29.9729 4.46999 29.3371 3.82469 28.3653C3.55837 27.9816 3.41143 27.5277 3.40234 27.0607C3.40234 25.8095 4.48569 24.8942 5.45914 24.2897C6.07196 23.9156 6.71852 23.5997 7.39033 23.3462C6.68881 22.2668 6.11553 21.1092 5.68209 19.897C5.33353 18.9064 5.12157 17.9503 5.07761 17.1198C5.03051 16.2249 5.17339 15.2422 5.83596 14.5812C6.47341 13.9438 7.35893 13.8276 7.93985 13.8151C8.6087 13.7994 9.36234 13.9108 10.1364 14.1134C11.1688 14.3918 12.168 14.7813 13.1164 15.2751C13.4245 13.6008 13.9829 11.9824 14.7728 10.4742C15.3161 9.45064 15.9425 8.56676 16.5941 7.91523C17.164 7.3422 18.0464 6.65143 19.1031 6.65143ZM28.7512 25.9633C27.7773 26.9798 26.6845 27.8754 25.4964 28.6306C27.3774 28.6118 29.073 28.1518 30.2773 27.5976C30.6776 27.4124 31.0026 27.2287 31.2507 27.0607C30.4971 26.552 29.6226 26.2129 28.7512 25.9633ZM9.45497 25.9633C8.58358 26.2145 7.71062 26.552 6.95542 27.0607C7.20349 27.2287 7.52849 27.4124 7.92886 27.5976C9.13311 28.1518 10.8288 28.6118 12.7097 28.6306C11.5216 27.8749 10.4288 26.9788 9.45497 25.9617L9.45497 25.9633ZM19.3904 10.132C19.1235 9.8651 19.0827 9.8651 18.8157 10.132C18.4358 10.5135 17.9836 11.1242 17.5456 11.9468C16.5079 13.9491 15.9652 16.1709 15.9629 18.426C15.9652 20.6811 16.5079 22.9029 17.5456 24.9052C17.9836 25.7278 18.4374 26.3401 18.8173 26.72C19.0827 26.9869 19.1235 26.9869 19.3904 26.72C19.7704 26.3401 20.2225 25.7278 20.6606 24.9052C21.6982 22.9029 22.2409 20.6811 22.2432 18.426C22.241 16.1709 21.6983 13.9491 20.6606 11.9468C20.2225 11.1242 19.7704 10.5135 19.3904 10.132ZM8.21462 16.9581C8.23817 17.4103 8.36534 18.0634 8.64325 18.8546C9.19905 20.434 10.2808 22.3556 11.942 24.0166C12.7562 24.8286 13.6644 25.5406 14.6472 26.1376C13.4957 23.8334 12.8735 21.3012 12.8259 18.7259C11.5699 17.9252 10.3358 17.4103 9.34193 17.1512C8.97342 17.05 8.59582 16.9853 8.21462 16.9581ZM29.9915 16.9581C29.7089 16.9738 29.329 17.0303 28.8642 17.1512C27.8704 17.4103 26.6363 17.9252 25.3802 18.7259C25.3325 21.3007 24.7102 23.8324 23.5589 26.136C24.5417 25.5395 25.4498 24.828 26.2642 24.0166C27.9253 22.3556 29.0071 20.434 29.5613 18.8546C29.8408 18.0634 29.968 17.4103 29.9915 16.9581Z" fill="white"/>
</svg>
