<?xml version="1.0" encoding="utf-8"?>
<!-- Generator: Adobe Illustrator 27.8.0, SVG Export Plug-In . SVG Version: 6.00 Build 0)  -->
<svg version="1.1" id="Layer_1" xmlns="http://www.w3.org/2000/svg" xmlns:xlink="http://www.w3.org/1999/xlink" x="0px" y="0px"
	 viewBox="0 0 256.3 252.8" style="enable-background:new 0 0 256.3 252.8;" xml:space="preserve">
<path d="M60.1,141.4c27.8-27.8,55.5-55.5,83.3-83.4c-8.6-16.6-8-32.7,5.7-46.7c11-11.3,24.9-14.2,39.5-8.6
	c18.2,7,25.7,21.3,24.6,40.4c20.8-0.8,35.4,7.7,41.5,28c4.6,15.2-1.3,30.8-14.3,40.4c-10.9,8.1-29.9,11.3-45.9-1.3
	c-27.6,27.6-55.2,55.2-82.9,82.9c9.4,15.2,10,30.9-1.6,45.5c-10,12.7-23.8,16.6-39.4,12.7c-9.2-2.3-16.3-7.8-21.5-15.7
	c-5.2-7.9-6.8-16.6-5.9-25.9c-19.3,1.1-33.4-6.4-40.6-24.5c-5.9-14.7-2-30.6,10.1-41.1C27.7,131.3,43.8,131.7,60.1,141.4z
	 M81.9,242.8c10.2-0.4,18.9-5.4,23.8-15.8c4.9-10.5,3.6-20.6-3.6-29.7c-3.4-4.4-3.5-6.1,0.4-10c28.9-28.9,57.7-57.7,86.6-86.6
	c0.6-0.6,1.2-1.2,1.8-1.7c2.2-1.7,4.5-1.6,6.6,0.1c0.8,0.7,1.6,1.5,2.4,2.2c8.8,8.1,22.2,9.5,32.7,3.4c10.6-6.2,15.9-18.7,12.9-30.4
	c-4.1-16.3-20.4-25.1-36.4-19.5c-2.3,0.8-4.5,1.3-6.5-0.6c-2.1-2-1.5-4.2-0.9-6.7c0.8-3.4,1.6-6.8,1.6-10.3
	c0.1-16.8-16.5-30-33-26.4c-20.3,4.4-28.8,27-16.7,43.9c2.5,3.5,2.4,5.5-0.6,8.6c-2.4,2.4-4.8,4.8-7.2,7.3
	c-26.7,26.7-53.5,53.5-80.2,80.2c-3.6,3.6-5.6,3.6-9.4,0.4c-6.7-5.6-14.4-7.7-23-6.3c-14.2,2.4-25.1,16.4-22.4,32.3
	c2.4,14.1,16.5,24.6,30.9,22.4c2.4-0.4,4.8-1.1,7.2-1.8c4.3-1.1,7.5,2,6.4,6.3c-0.2,0.7-0.4,1.4-0.7,2.1
	C48.6,224.3,61.7,242.7,81.9,242.8z"/>
<path d="M78.1,150.1c0.3-0.6,0.8-2.1,1.8-3.1c7.4-7.5,14.9-15,22.4-22.4c2.5-2.4,5.4-2.6,7.5-0.5c2.1,2.1,2,5.1-0.5,7.5
	c-7.4,7.5-14.9,14.9-22.4,22.4c-1.6,1.6-3.6,2.5-5.9,1.4C79.1,154.6,78.1,153.1,78.1,150.1z"/>
<path d="M116.7,122c-2.6,0-5-2.4-4.9-4.9c0-2.6,2.6-5.1,5.2-5.1c2.7,0,4.8,2.3,4.8,5C121.8,119.9,119.5,122.1,116.7,122z"/>
</svg>
