<svg width="113" height="132" viewBox="0 0 113 132" fill="none" xmlns="http://www.w3.org/2000/svg">
<path d="M31.5 100.5H25.25M25.25 100.5C20.2772 100.5 15.5081 98.5246 11.9917 95.0083C8.47544 91.4919 6.5 86.7228 6.5 81.75V44.25C6.5 39.2772 8.47544 34.5081 11.9917 30.9917C15.5081 27.4754 20.2772 25.5 25.25 25.5M25.25 100.5V119.25H40.875M25.25 25.5H62.75M25.25 25.5V6.75H62.75V25.5M62.75 25.5C67.7228 25.5 72.4919 27.4754 76.0083 30.9917C79.5246 34.5081 81.5 39.2772 81.5 44.25V56.75M81.5 125.5L102.438 104.975C103.721 103.729 104.743 102.239 105.441 100.591C106.14 98.9442 106.501 97.1738 106.504 95.3847C106.507 93.5956 106.151 91.8241 105.458 90.1746C104.765 88.5252 103.749 87.0314 102.469 85.7813C99.8571 83.2271 96.3512 81.7938 92.6982 81.7868C89.0453 81.7798 85.5339 83.1997 82.9125 85.7437L81.5125 87.1188L80.1187 85.7437C77.5074 83.1915 74.0029 81.7594 70.3514 81.7524C66.6999 81.7454 63.1899 83.164 60.5688 85.7063C59.2844 86.9518 58.2626 88.442 57.5636 90.0889C56.8647 91.7358 56.5028 93.5061 56.4993 95.2952C56.4958 97.0843 56.8508 98.856 57.5433 100.506C58.2358 102.155 59.2518 103.649 60.5313 104.9L81.5 125.5Z" stroke="#1E1E1E" stroke-width="12.5" stroke-linecap="round" stroke-linejoin="round"/>
</svg>
