<svg width="63" height="63" viewBox="0 0 63 63" fill="none" xmlns="http://www.w3.org/2000/svg">
<path d="M55 55V40.9M55 40.9H8M55 40.9H31.5V17.4H47.95C49.8198 17.4 51.613 18.8855 52.9351 21.5298C54.2572 24.1741 55 27.7604 55 31.5V40.9ZM8 12.7V55M15.05 17.4C15.05 19.893 15.5452 22.284 16.4266 24.0468C17.308 25.8096 18.5035 26.8 19.75 26.8C20.9965 26.8 22.192 25.8096 23.0734 24.0468C23.9548 22.284 24.45 19.893 24.45 17.4C24.45 14.907 23.9548 12.516 23.0734 10.7532C22.192 8.99035 20.9965 8 19.75 8C18.5035 8 17.308 8.99035 16.4266 10.7532C15.5452 12.516 15.05 14.907 15.05 17.4Z" stroke="#0D1317" stroke-width="4.16667" stroke-linecap="round" stroke-linejoin="round"/>
</svg>
