<svg width="50" height="50" viewBox="0 0 50 50" fill="none" xmlns="http://www.w3.org/2000/svg">
<path d="M6.25 14.5833C6.25 12.3732 7.12797 10.2536 8.69078 8.69078C10.2536 7.12797 12.3732 6.25 14.5833 6.25H35.4167C37.6268 6.25 39.7464 7.12797 41.3092 8.69078C42.872 10.2536 43.75 12.3732 43.75 14.5833V35.4167C43.75 37.6268 42.872 39.7464 41.3092 41.3092C39.7464 42.872 37.6268 43.75 35.4167 43.75H14.5833C12.3732 43.75 10.2536 42.872 8.69078 41.3092C7.12797 39.7464 6.25 37.6268 6.25 35.4167V14.5833Z" stroke="#0D1317" stroke-width="4.16667" stroke-linecap="round" stroke-linejoin="round"/>
<path d="M25.0001 14.5833C29.0751 14.5833 32.7584 16.2541 35.4167 18.9479L29.2584 24.9979C28.1033 23.928 26.587 23.3336 25.0126 23.3333C23.4384 23.333 21.9221 23.9267 20.7667 24.9958L14.6084 18.9479C15.9658 17.5623 17.5867 16.4624 19.3756 15.7128C21.1646 14.9632 23.0854 14.5792 25.0251 14.5833H25.0001Z" stroke="#0D1317" stroke-width="4.16667" stroke-linecap="round" stroke-linejoin="round"/>
</svg>
