<svg width="50" height="50" viewBox="0 0 50 50" fill="none" xmlns="http://www.w3.org/2000/svg">
<path d="M6.25 25C6.25 27.4623 6.73498 29.9005 7.67726 32.1753C8.61953 34.4502 10.0006 36.5172 11.7417 38.2582C13.4828 39.9993 15.5498 41.3805 17.8247 42.3227C20.0995 43.265 22.5377 43.75 25 43.75C27.4623 43.75 29.9005 43.265 32.1753 42.3227C34.4502 41.3805 36.5172 39.9993 38.2582 38.2582C39.9993 36.5172 41.3805 34.4502 42.3227 32.1753C43.265 29.9005 43.75 27.4623 43.75 25C43.75 20.0272 41.7746 15.2581 38.2582 11.7417C34.7419 8.22544 29.9728 6.25 25 6.25C20.0272 6.25 15.2581 8.22544 11.7417 11.7417C8.22544 15.2581 6.25 20.0272 6.25 25Z" stroke="#0D1317" stroke-width="4.16667" stroke-linecap="round" stroke-linejoin="round"/>
<path d="M25 14.5833V24.9999L31.25 31.2499" stroke="#0D1317" stroke-width="4.16667" stroke-linecap="round" stroke-linejoin="round"/>
</svg>
