<?xml version="1.0" encoding="utf-8"?>
<!-- Generator: Adobe Illustrator 27.8.0, SVG Export Plug-In . SVG Version: 6.00 Build 0)  -->
<svg version="1.1" id="Layer_1" xmlns="http://www.w3.org/2000/svg" xmlns:xlink="http://www.w3.org/1999/xlink" x="0px" y="0px"
	 viewBox="0 0 220.2 256.1" style="enable-background:new 0 0 220.2 256.1;" xml:space="preserve">
<path d="M16.4,60.5c3.4,0.4,6.4,0.7,9.6,1.1c-0.5-0.9-1-1.5-1.2-2.2c-0.7-1.8-0.4-3.5,1.3-4.7c1.7-1.2,3.5-1,4.7,0.5
	c2.4,3,4.8,6,6.9,9.2c1.1,1.7,0.6,3.5-1,4.9c-2.4,2.1-4.8,4.1-7.3,6.1c-2.2,1.8-4.2,1.9-5.7,0.2c-1.6-1.7-1.4-3.6,0.7-5.7
	c0.2-0.2,0.3-0.4,0.8-0.9c-3.4-0.4-6.5-0.8-9.6-1.2c-2.1,11.3,2.6,27.8,12,37.5c0.4-0.8,0.7-1.5,1.1-2.2c1.1-1.8,2.6-2.6,4.6-1.8
	c1.9,0.7,2.8,2.6,2.2,4.7c-0.3,1-0.7,2.1-1.3,3c-1,1.6-0.5,2.6,1,3.7c7,5.1,14.9,8,23.4,9.3c5.4,0.9,10.8,1.7,16.3,2.6
	c2.7,0.4,4.1,2,3.8,4.3c-0.2,2-1.7,3.5-4,3.1c-13.1-1.8-26.3-2.9-38.2-9.6c-2.1-1.2-4.1-2.5-6.3-3.9c-5.1,12.5-8.8,25.3-10.7,38.7
	c5,0.7,9.8,1.3,14.5,2.1c15.8,2.8,29.8,9.5,42.8,18.7c8.9,6.3,18,12.3,27,18.4c4.6,3.1,7.4,3.1,11.9,0.1
	c9.6-6.5,19.3-13.1,28.9-19.6c0.3-0.2,0.7-0.5,1-0.7c2.3-1.4,4.4-1.1,5.7,0.8c1.2,1.9,0.7,3.9-1.4,5.4c-3.9,2.7-7.9,5.3-11.8,8
	c-6.2,4.2-12.4,8.4-18.6,12.6c-0.7,0.5-1.4,1.1-2.1,1.3c-3.6,0.8-3.7,3.2-3.7,6.3c-0.1,13.5,1.8,26.5,6.9,39c1.2,2.9,0.4,5-1.9,5.8
	c-2.1,0.8-4-0.4-5.1-3.2c-1.2-3.1-2.3-6.3-3.6-9.9c-1.4,3.7-2.6,7.1-3.9,10.5c-1.1,2.7-3.5,3.6-5.6,2.2c-2-1.4-1.8-3.2-1.2-5.3
	c2.1-7.1,4.5-14.1,5.7-21.4c1.1-6.8,0.9-13.9,1.2-20.9c0-0.6-0.4-1.4-0.9-1.7c-3.2-2-6.6-3.7-9.8-5.8c-9.1-6.1-18.2-12.3-27.3-18.5
	c-13.4-9-28.1-14.3-44.1-15.8c-1.8-0.2-3.6-0.4-5.7-0.7c-0.2,1.9-0.3,3.5-0.4,5.1c3.9,0.6,4.4,1.1,5.3,4.9c0.7,3,1.3,6,1.9,9
	c0.8,3.7,0.2,5.6-2.1,6.2c-2.5,0.7-4-0.5-5.7-4.2c0.3,4.4,0.3,8.8,0.9,13.2c0.7,5.7,1.6,11.4,2.5,17c0.4,2.4-0.7,4.4-2.8,4.8
	c-2.1,0.5-4-0.8-4.5-3.3c-2.3-11.2-3.5-22.5-3.5-34c-0.2-23.8,4.3-46.6,13.4-68.5c0.5-1.2,0.8-2.1-0.3-3.3C12,100,6.9,85.8,7.6,69.5
	c0-0.6,0-1.2,0-1.7c0-0.2-0.1-0.3-0.2-0.6c-1.3-0.2-2.7-0.4-4-0.6c-2.3-0.4-3.6-1.9-3.4-4.1c0.2-2.1,1.9-3.5,4.2-3.3
	c1.5,0.1,3,0.4,4,0.5c3.3-7.3,6.5-14.2,9.7-21.3c3.2-7.2,6.6-14.3,9.2-21.7c1.3-3.7,1.3-8,1.8-12c0.3-2.9,1.6-4.6,3.9-4.5
	c2.4,0.1,3.7,1.9,3.6,5c-0.3,9.1-2.5,17.7-6.5,25.9c-3.7,7.5-7.4,15.1-11,22.7C17.9,55.7,17.3,58,16.4,60.5z"/>
<path d="M202.2,185.9c-0.1,0.4-0.1,0.7-0.3,1.1c-0.9,2.7-2.5,3.7-4.8,3.1c-2.1-0.6-3-2.3-2.5-5c0.8-3.9,1.6-7.8,2.5-11.7
	c0.6-2.5,2.4-3.4,5.1-3.3c-0.2-1.8-0.4-3.5-0.6-5.3c-12.1,1-23.7,3.1-34.6,7.9c-0.7,0.3-1.4,0.6-2.1,0.9c-2.4,0.9-4.5,0.2-5.3-1.7
	c-0.8-2-0.1-4.2,2.3-5.1c5.3-2,10.5-4.3,15.9-5.7c6.8-1.7,13.7-2.5,20.6-3.6c0.6-0.1,1.3-0.2,2.2-0.3c-2-13.5-5.6-26.3-10.7-38.7
	c-4,2.2-7.9,4.5-11.9,6.5c-7.6,3.6-15.9,4.7-24.1,6c-16,2.5-32.1,3.7-48.3,3.5c-4.8-0.1-9.7-0.3-14.5-0.7c-2.6-0.2-4.1-1.8-3.9-3.9
	c0.1-2.2,2-3.7,4.6-3.5c15.2,1,30.5,0.9,45.7-0.9c10.9-1.3,21.8-3,32.4-5.6c5.3-1.3,10.1-4.9,15.1-7.5c1.5-0.8,1.9-1.9,0.9-3.4
	c-0.4-0.7-0.7-1.5-1-2.3c-0.9-2.4-0.2-4.3,1.9-5.2c1.9-0.8,3.7-0.1,4.9,2.1c0.2,0.4,0.5,0.9,0.9,1.6c9-10.8,12.9-23,11.8-37.1
	c-3.1,0.3-6.1,0.7-9.4,1.1c0.7,0.8,1.2,1.3,1.6,1.8c1.2,1.6,1.2,3.3-0.2,4.8c-1.3,1.5-3.1,1.9-4.7,0.6c-3-2.3-6-4.8-8.8-7.4
	c-1.5-1.4-1.4-3.3-0.2-5c1.9-2.6,3.9-5.2,5.8-7.8c1.7-2.1,3.6-2.6,5.4-1.3c1.8,1.2,2.1,3.2,0.8,5.5c-0.2,0.3-0.4,0.7-0.7,1.4
	c3.1-0.4,6-0.8,9.3-1.2c-1.7-3.9-3.1-7.6-4.7-11.1c-4.1-8.9-8.8-17.6-12.2-26.7c-2.1-5.6-2.4-11.8-3.3-17.8
	c-0.4-2.9,1.2-4.7,3.5-4.8c2.3-0.1,3.8,1.5,3.9,4.5c0.3,8.8,2.7,17,6.6,24.9c4.2,8.5,8.1,17.1,12,25.7c0.6,1.3,0.9,2.8,1.4,4.5
	c1.5-0.2,3.1-0.3,4.6-0.5c2.6-0.3,4.5,1,4.8,3.2c0.3,2.4-1,3.9-3.8,4.2c-1.3,0.2-2.6,0.4-4.2,0.6c0,1.2,0,2.4,0,3.6
	c0.4,15.5-4.6,29.1-15.1,40.6c-1.3,1.4-0.9,2.4-0.4,3.8c6.4,15.1,10.4,30.8,12.3,47.1c3,26.4,0.2,52.1-8.1,77.3
	c-1.2,3.5-2.2,7-3.3,10.4c-1,3-2.7,4.2-5.1,3.5c-2.2-0.7-2.9-2.8-2-5.8c3-10.5,6.5-20.8,8.7-31.4c1.9-9.2,2.4-18.6,3.4-27.9
	c0.1-0.8,0-1.6,0-2.4C202.5,185.9,202.4,185.9,202.2,185.9z"/>
<path d="M22,229.1c0.6,0.6,2.1,1.4,2.6,2.7c2,5.5,3.7,11.2,5.4,16.8c0.7,2.3-0.4,4.3-2.3,4.8c-2.1,0.6-4-0.4-4.8-2.8
	c-1.8-5.4-3.5-10.7-5.1-16.1C16.9,231.6,18.5,229.2,22,229.1z"/>
<path d="M47,78.5c-0.4,1.4-0.6,2.1-0.9,2.8c-1.6,3.9-3.3,7.8-5,11.7c-1.1,2.4-3.1,3.3-5.2,2.4c-1.9-0.9-2.6-3-1.7-5.3
	c1.7-4.1,3.5-8.2,5.3-12.3c0.9-2,2.6-2.8,4.5-2.1C45.3,76.2,46.1,77.6,47,78.5z"/>
<path d="M186.6,92.7c-0.7,0.7-1.5,2.1-2.6,2.7c-1.6,0.7-3.5,0.4-4.3-1.4c-2.1-4.6-4.2-9.2-6-13.9c-0.7-1.8,0.2-3.5,2-4.3
	c1.8-0.7,3.7-0.5,4.6,1.4c2.2,4.6,4.1,9.4,6.1,14.1C186.5,91.5,186.5,91.8,186.6,92.7z"/>
<path d="M170.7,34.2c0,1.3,0,2.7,0,4c0,2.5-1.4,4.2-3.5,4.3c-2.1,0.1-3.8-1.5-3.9-4c-0.1-3.2,0-6.3,0-9.5c0-1.4,0.2-2.8,0.3-4.2
	c0.2-2.3,1.8-3.8,3.8-3.8c2.1,0.1,3.7,1.7,3.6,4c-0.1,3.1-0.3,6.1-0.5,9.2C170.6,34.2,170.7,34.2,170.7,34.2z"/>
<path d="M49.6,34.2c-0.2-2.9-0.4-5.8-0.5-8.7c-0.1-2.7,1.3-4.4,3.6-4.5c2.2-0.1,3.8,1.6,3.9,4.2c0.2,4.4,0.5,8.8,0.2,13.2
	c-0.1,1.3-1.4,3-2.7,3.7c-0.8,0.5-2.6-0.3-3.7-1c-0.6-0.4-0.9-1.7-1-2.7c-0.2-1.4,0-2.8,0-4.2C49.5,34.2,49.6,34.2,49.6,34.2z"/>
<path d="M55.6,53.1c-1.3,4.9-2.6,9.8-4.1,14.6c-0.6,1.8-2.3,2.7-4.3,2.1c-1.9-0.6-3.1-2-2.7-3.9c1.1-4.9,2.3-9.8,3.7-14.7
	c0.6-2,2.4-2.5,4.3-2.1C54.5,49.5,55.3,51,55.6,53.1z"/>
<path d="M175.7,65.9c0,2.2-1,3.4-2.9,3.9c-1.9,0.4-3.5-0.4-4-2.1c-1.4-4.9-2.7-9.9-3.7-14.9c-0.4-1.8,0.8-3.2,2.6-3.7
	c1.8-0.4,3.6,0,4.2,1.8C173.3,55.9,174.4,61,175.7,65.9z"/>
<path d="M26.5,195.3c0.5,0.6,2,1.4,2.5,2.7c1.6,3.9,2.9,7.9,4.2,12c0.7,2.2-0.2,4-2.3,4.8c-1.9,0.7-3.9-0.1-4.7-2.2
	c-1.5-4.1-3-8.3-4.3-12.5C21.2,197.5,23.1,195.3,26.5,195.3z"/>
<path d="M193.7,195.3c3.2,0,5.2,2.2,4.5,4.4c-1.3,4.4-2.9,8.8-4.6,13.1c-0.7,1.9-2.5,2.7-4.5,1.9c-2-0.7-3-2.6-2.3-4.6
	c1.3-4.1,2.7-8.2,4.3-12.2C191.7,196.7,193.2,195.8,193.7,195.3z"/>
<path d="M44.6,235.3c-1,1-1.8,2.5-2.9,2.8c-1.2,0.3-3.4-0.1-3.9-1c-2.5-4.3-4.6-8.8-6.6-13.3c-0.7-1.7,0.4-3.5,2.1-3.9
	c1.3-0.3,3.6,0.1,4.2,1c2.5,4.2,4.5,8.7,6.6,13c0.1,0.3,0.1,0.7,0.1,1C44.3,235,44.5,235.1,44.6,235.3z"/>
<path d="M180.4,238.5c-3.4,0-5.3-2.8-4.1-5.3c1.8-4,3.8-7.9,5.8-11.8c1-1.9,3.2-2.5,4.9-1.6c1.8,0.9,2.6,2.9,1.7,4.9
	c-1.8,4-3.8,7.9-5.9,11.8C182.3,237.5,181,238.1,180.4,238.5z"/>
<path d="M175.1,4.7c-0.6,2.2-1.3,5.1-2.3,7.9c-0.6,1.8-2.3,2.3-4.1,1.9c-1.9-0.4-3.1-1.8-2.8-3.6c0.5-3.1,1.4-6.1,2.4-9.1
	c0.6-1.7,2.4-2.3,4.2-1.7C174.3,0.8,175.3,2.1,175.1,4.7z"/>
<path d="M43,245.3c0.7-0.8,1.4-2.2,2.5-2.6c1.1-0.4,3.2-0.2,3.8,0.6c2,2.3,3.6,5,5,7.7c0.8,1.6,0.2,3.3-1.4,4.4
	c-1.6,1.1-3.4,1-4.5-0.4c-1.9-2.6-3.5-5.4-5.2-8.2C43.2,246.5,43.2,246.2,43,245.3z"/>
<path d="M177.3,245.5c-0.5,1.3-0.6,1.9-0.9,2.5c-1.3,2.1-2.6,4.2-4,6.3c-1.3,1.9-3.3,2.3-5,1.2c-1.8-1.1-2.4-3.2-1.3-5.2
	c1.3-2.2,2.5-4.6,4.2-6.4c0.9-0.9,2.9-1.5,4.1-1.2C175.6,243,176.5,244.6,177.3,245.5z"/>
<path d="M54.3,10.2c-0.1,2.6-0.9,4-2.9,4.3c-1.9,0.3-3.6-0.3-4.2-2.2c-0.8-2.6-1.6-5.2-2.1-7.9c-0.4-2.1,0.9-4,2.8-4.3
	c2.1-0.4,3.6,0.5,4.3,2.5C53,5.3,53.7,8.1,54.3,10.2z"/>
<path d="M113.9,94.5c0,0.7,0,1.5-0.2,2.2c-0.3,2.1-1.7,3.3-3.7,3.2c-1.9,0-3.3-1.2-3.5-3.2c-0.2-1.5-0.2-3-0.1-4.5
	c0.2-2.2,1.7-3.6,3.6-3.7c1.9,0,3.5,1.5,3.7,3.6C113.9,93,113.8,93.8,113.9,94.5C113.8,94.5,113.8,94.5,113.9,94.5z"/>
</svg>
