<?xml version="1.0" encoding="utf-8"?>
<!-- Generator: Adobe Illustrator 27.8.0, SVG Export Plug-In . SVG Version: 6.00 Build 0)  -->
<svg version="1.1" id="Layer_1" xmlns="http://www.w3.org/2000/svg" xmlns:xlink="http://www.w3.org/1999/xlink" x="0px" y="0px"
	 viewBox="0 0 256.1 234.8" style="enable-background:new 0 0 256.1 234.8;" xml:space="preserve">
<path d="M91,85.3c1.8,15.3,3.5,30.1,5.2,45.2c18.7-14.1,39-17,60.8-8.1c3-4.2,5.7-8.6,8.9-12.4c12-14.1,27.3-22.2,45.7-24.3
	c10-1.1,19.5,0,27.9,5.9c10.3,7.2,16.1,17.2,16.3,29.7c0.4,21.3,0.3,42.7,0.1,64c-0.2,16.5-10.2,29.8-26.4,35.3
	c-19.1,6.5-38.7,10.9-58.8,12.8c-15.9,1.5-31.8,1.8-47.7,0.8c-39.2-2.5-75.9-13.4-110.2-32.7c-8.9-5-15.3-15.1-11.9-28.3
	c1.1-4.3,1.9-8.9,1.8-13.3c-0.2-15.6,4.1-30.2,9.3-44.7c6.8-18.9,14.5-37.3,25-54.5c9.8-16.1,21.3-30.8,34.8-44
	C83,5.7,96.7,0.2,112.4,0c6.6-0.1,12.9,1.3,18.6,4.8c5.8,3.7,11.7,7.3,17.2,11.5c5.9,4.5,7.2,12.3,3.9,18.9
	c-0.7,1.4-0.6,2.3,0.3,3.5c4.5,6.3,4.2,14.3-1.2,19.9c-7.3,7.6-14.8,14.9-22.2,22.3c-3,3-6.9,4.2-11.1,4.3c-7.8,0-15.7,0-23.5,0
	C93.4,85.3,92.5,85.3,91,85.3z M142.9,44.7c-4,4.3-7.8,8.9-12.1,12.9c-4.9,4.6-13.1,5-18.6,1.6c-6.5-4-9.5-10.8-8.1-17.9
	c1.1-5.5,5.1-9,8.8-12.7c2.6-2.5,5.8-2.7,8-0.6c2.3,2.2,2.1,5.4-0.5,8.2c-1.4,1.5-3,2.9-4.4,4.5c-1.6,1.7-2.1,3.8-1.2,6
	c1.6,4.4,6.5,5.3,10.1,1.8c5.4-5.2,10.7-10.6,15.9-15.9c3.4-3.5,3.1-6.8-0.9-9.5c-3.9-2.6-7.7-5.2-11.6-7.8c-4-2.6-8.2-4.4-13-4.7
	c-14-0.8-26.1,3.8-36.1,13.5c-12.7,12.4-23.7,26.4-33,41.6c-10.8,17.7-18.6,36.8-25.4,56.2c-4.1,11.6-7.2,23.5-7.6,36
	c-0.2,6.2-1.1,12.4-2.2,18.5c-1.2,6.7,0.8,12.1,6.7,15.4c29.9,17,62,27.2,96.2,30.7c18.1,1.8,36.3,1.7,54.4,0.2
	c19.7-1.7,38.9-5.9,57.6-12.3c12.3-4.2,19.2-13.5,19.3-26.5c0.1-20.3,0.1-40.7,0-61c-0.1-14.4-10.8-26.4-24.7-27
	c-4-0.2-8,0.1-11.9,0.8c-18.2,3.4-31.8,13.3-41.1,29.2c-0.9,1.5-0.4,2.1,0.8,3c2.1,1.5,4.1,3.2,6,4.9c1.9,1.8,2.3,4.6,1.2,6.6
	c-1.2,2.1-3.7,3.4-5.9,2.5c-1.4-0.5-2.7-1.6-3.9-2.6c-11.7-10.4-25.3-14.4-40.7-11.7c-15.3,2.7-26.5,11.2-34,24.8
	c-1.5,2.7-3.4,5.3-5.6,7.6c-4,4.4-8.8,7.6-14.6,9.1c-3,0.7-5.4-0.6-6.4-3.4c-1-2.7,0.2-5.2,2.9-6.6c0.4-0.2,0.9-0.4,1.4-0.6
	c10.1-4,15.3-11.7,16.3-22.3c1.1-10.6-1-21.1-2.3-31.5c-1.1-9-3-17.9-1.8-27.1c0.7-5,2.1-9.6,5.8-13.2c2.1-2.1,5-2.3,7.2-0.5
	c2.2,1.7,2.5,4.5,0.9,7.1c-0.4,0.7-0.8,1.3-1.4,2.3c8.4,0,16.3,0.1,24.2-0.1c1.5,0,3.4-0.8,4.5-1.8c7.1-6.9,14.1-13.9,21.1-21
	C145,50,145.3,47.8,142.9,44.7z"/>
</svg>
