<svg width="50" height="50" viewBox="0 0 50 50" fill="none" xmlns="http://www.w3.org/2000/svg">
<rect width="50" height="50" rx="10" fill="url(#paint0_linear_2067_2)"/>
<path d="M14.333 32.9998C14.333 31.5853 14.8949 30.2288 15.8951 29.2286C16.8953 28.2284 18.2519 27.6665 19.6663 27.6665H30.333C31.7475 27.6665 33.104 28.2284 34.1042 29.2286C35.1044 30.2288 35.6663 31.5853 35.6663 32.9998C35.6663 33.7071 35.3854 34.3854 34.8853 34.8855C34.3852 35.3856 33.7069 35.6665 32.9997 35.6665H16.9997C16.2924 35.6665 15.6142 35.3856 15.1141 34.8855C14.614 34.3854 14.333 33.7071 14.333 32.9998Z" stroke="white" stroke-width="2.66667" stroke-linejoin="round"/>
<path d="M25 22.3333C27.2091 22.3333 29 20.5424 29 18.3333C29 16.1241 27.2091 14.3333 25 14.3333C22.7909 14.3333 21 16.1241 21 18.3333C21 20.5424 22.7909 22.3333 25 22.3333Z" stroke="white" stroke-width="2.66667"/>
<defs>
<linearGradient id="paint0_linear_2067_2" x1="3.5" y1="3.5" x2="47" y2="46" gradientUnits="userSpaceOnUse">
<stop stop-color="#2937D1"/>
<stop offset="1" stop-color="#81C5DB"/>
</linearGradient>
</defs>
</svg>
