<svg width="114" height="114" viewBox="0 0 114 114" fill="none" xmlns="http://www.w3.org/2000/svg">
<path d="M7 32V19.5C7 16.1848 8.31696 13.0054 10.6612 10.6612C13.0054 8.31696 16.1848 7 19.5 7H32M7 82V94.5C7 97.8152 8.31696 100.995 10.6612 103.339C13.0054 105.683 16.1848 107 19.5 107H32M82 7H94.5C97.8152 7 100.995 8.31696 103.339 10.6612C105.683 13.0054 107 16.1848 107 19.5V32M82 107H94.5C97.8152 107 100.995 105.683 103.339 103.339C105.683 100.995 107 97.8152 107 94.5V82M38.25 44.5H38.3125M75.75 44.5H75.8125M41.375 75.75C43.4117 77.8287 45.8428 79.4802 48.5258 80.6076C51.2088 81.735 54.0898 82.3157 57 82.3157C59.9102 82.3157 62.7912 81.735 65.4742 80.6076C68.1572 79.4802 70.5883 77.8287 72.625 75.75" stroke="#1E1E1E" stroke-width="12.5" stroke-linecap="round" stroke-linejoin="round"/>
</svg>
