<svg width="126" height="132" viewBox="0 0 126 132" fill="none" xmlns="http://www.w3.org/2000/svg">
<path d="M32 19.25H19.5C16.1848 19.25 13.0054 20.567 10.6612 22.9112C8.31696 25.2554 7 28.4348 7 31.75V106.75C7 110.065 8.31696 113.245 10.6612 115.589C13.0054 117.933 16.1848 119.25 19.5 119.25H55.1062M94.5 75.5V100.5H119.5M94.5 56.75V31.75C94.5 28.4348 93.183 25.2554 90.8388 22.9112C88.4946 20.567 85.3152 19.25 82 19.25H69.5" stroke="#1E1E1E" stroke-width="12.5" stroke-linecap="round" stroke-linejoin="round"/>
<path d="M32 56.75H57M32 81.75H50.75M32 19.25C32 15.9348 33.317 12.7554 35.6612 10.4112C38.0054 8.06696 41.1848 6.75 44.5 6.75H57C60.3152 6.75 63.4946 8.06696 65.8388 10.4112C68.183 12.7554 69.5 15.9348 69.5 19.25C69.5 22.5652 68.183 25.7446 65.8388 28.0888C63.4946 30.433 60.3152 31.75 57 31.75H44.5C41.1848 31.75 38.0054 30.433 35.6612 28.0888C33.317 25.7446 32 22.5652 32 19.25ZM69.5 100.5C69.5 107.13 72.1339 113.489 76.8223 118.178C81.5107 122.866 87.8696 125.5 94.5 125.5C101.13 125.5 107.489 122.866 112.178 118.178C116.866 113.489 119.5 107.13 119.5 100.5C119.5 93.8696 116.866 87.5107 112.178 82.8223C107.489 78.1339 101.13 75.5 94.5 75.5C87.8696 75.5 81.5107 78.1339 76.8223 82.8223C72.1339 87.5107 69.5 93.8696 69.5 100.5Z" stroke="#1E1E1E" stroke-width="12.5" stroke-linecap="round" stroke-linejoin="round"/>
</svg>
