<svg width="50" height="50" viewBox="0 0 50 50" fill="none" xmlns="http://www.w3.org/2000/svg">
<rect width="50" height="50" rx="10" fill="url(#paint0_linear_2103_2)"/>
<path d="M25.7267 36.9998H16.6667C15.9594 36.9998 15.2811 36.7189 14.781 36.2188C14.281 35.7187 14 35.0404 14 34.3332V18.3332C14 17.6259 14.281 16.9476 14.781 16.4476C15.2811 15.9475 15.9594 15.6665 16.6667 15.6665H32.6667C33.3739 15.6665 34.0522 15.9475 34.5523 16.4476C35.0524 16.9476 35.3333 17.6259 35.3333 18.3332V23.6665" stroke="white" stroke-width="3.91667" stroke-linecap="round" stroke-linejoin="round"/>
<path d="M30 13V18.3333M19.3333 13V18.3333M14 23.6667H35.3333M28.6667 33C28.6667 34.4145 29.2286 35.771 30.2288 36.7712C31.229 37.7714 32.5855 38.3333 34 38.3333C35.4145 38.3333 36.771 37.7714 37.7712 36.7712C38.7714 35.771 39.3333 34.4145 39.3333 33C39.3333 31.5855 38.7714 30.229 37.7712 29.2288C36.771 28.2286 35.4145 27.6667 34 27.6667C32.5855 27.6667 31.229 28.2286 30.2288 29.2288C29.2286 30.229 28.6667 31.5855 28.6667 33Z" stroke="white" stroke-width="3.91667" stroke-linecap="round" stroke-linejoin="round"/>
<path d="M34 30.9946V33L35.3333 34.3333" stroke="white" stroke-width="3.91667" stroke-linecap="round" stroke-linejoin="round"/>
<defs>
<linearGradient id="paint0_linear_2103_2" x1="3.5" y1="3.5" x2="47" y2="46" gradientUnits="userSpaceOnUse">
<stop stop-color="#2937D1"/>
<stop offset="1" stop-color="#81C5DB"/>
</linearGradient>
</defs>
</svg>
