<svg width="35" height="23" viewBox="0 0 35 23" fill="none" xmlns="http://www.w3.org/2000/svg">
<path d="M7.70801 7.58325V15.4166M13.583 7.58325V15.4166M5.74967 1.70825H27.2913C28.3301 1.70825 29.3263 2.1209 30.0608 2.85542C30.7954 3.58993 31.208 4.58615 31.208 5.62492V6.60409C31.208 6.86378 31.3112 7.11283 31.4948 7.29646C31.6784 7.48009 31.9275 7.58325 32.1872 7.58325C32.4469 7.58325 32.6959 7.68641 32.8796 7.87004C33.0632 8.05367 33.1663 8.30273 33.1663 8.56242V14.4374C33.1663 14.6971 33.0632 14.9462 32.8796 15.1298C32.6959 15.3134 32.4469 15.4166 32.1872 15.4166C31.9275 15.4166 31.6784 15.5197 31.4948 15.7034C31.3112 15.887 31.208 16.1361 31.208 16.3958V17.3749C31.208 18.4137 30.7954 19.4099 30.0608 20.1444C29.3263 20.8789 28.3301 21.2916 27.2913 21.2916H5.74967C4.71091 21.2916 3.71469 20.8789 2.98017 20.1444C2.24566 19.4099 1.83301 18.4137 1.83301 17.3749V5.62492C1.83301 4.58615 2.24566 3.58993 2.98017 2.85542C3.71469 2.1209 4.71091 1.70825 5.74967 1.70825Z" stroke="#222222" stroke-width="2.5" stroke-linecap="round" stroke-linejoin="round"/>
</svg>
