<?xml version="1.0" encoding="utf-8"?>
<!-- Generator: Adobe Illustrator 27.8.0, SVG Export Plug-In . SVG Version: 6.00 Build 0)  -->
<svg version="1.1" id="Layer_1" xmlns="http://www.w3.org/2000/svg" xmlns:xlink="http://www.w3.org/1999/xlink" x="0px" y="0px"
	 viewBox="0 0 242.4 256" style="enable-background:new 0 0 242.4 256;" xml:space="preserve">
<path d="M92.1,55.9c-5.7-9.2-7.8-18.4-5.5-28.4c1.8-7.7,5.8-14.1,11.8-19.2c12-10.1,29.2-11,42.3-2.3c8.2,5.5,13.3,13.2,15.2,22.9
	c1.9,9.5-0.3,18.4-5.7,26.9c1.4,0.1,2.2,0.1,3.1,0.1c8.7,0,17.3-0.1,26,0.1c20.2,0.5,38.7,15.9,42.7,35.7
	c3.3,16.7,6.1,33.5,9.1,50.3c3.4,19.3,6.6,38.7,10.3,57.9c4.8,25-10.4,49.1-35.1,54.9c-3.5,0.8-7.3,1.2-10.9,1.2
	C146,256,96.5,256,47,256c-23.9,0-43.2-16.8-46.6-40.3c-1-7.2,0.3-14.3,1.5-21.3c3.5-19.4,6.9-38.8,10.3-58.2
	c2.6-14.9,5.1-29.8,8.1-44.6c3.6-18,19.7-33,37.9-34.9c10-1,20.1-0.5,30.2-0.7C89.4,55.9,90.5,55.9,92.1,55.9z M121.1,241
	c24.7,0,49.3,0,74,0c20.4,0,34.4-16.9,31.8-35.2c-2-14.5-4.9-28.8-7.5-43.2c-3.8-21.4-7.7-42.7-11.3-64.1
	c-2.7-16.3-15.4-27.4-32-27.4c-37.2,0-74.3,0-111.5,0c-14.3,0-27.3,10.8-30,24.9c-2.1,11.2-4,22.4-6,33.6
	c-4.1,23.3-8.2,46.6-12.4,69.9c-1,5.8-1.8,11.5-0.4,17.3c3.6,14.5,15.9,24.1,31.5,24.1C72,241,96.6,241,121.1,241z M141.6,35.5
	c-0.4-11.4-8.5-20.3-20.3-20.3c-11.4-0.1-20.3,8.4-20.3,20.2c-0.1,11.4,8.5,20.1,20.2,20.4C132.1,56.1,141.4,46.6,141.6,35.5z"/>
<path d="M158.7,165.5c-1.2,0-2.3,0-3.4,0c-4.2-0.1-7.5-3.4-7.5-7.4c0-4.1,3.4-7.5,7.7-7.6c3.7-0.1,7.5-0.1,11.2,0
	c4.3,0.1,7.3,3.2,7.5,7.4c0.2,6.4,0.2,12.8-3.5,18.6c-4.8,7.6-11.8,11.7-20.7,11.7c-8.8,0-16-4-20.4-11.7c-1.9-3.4-3.2-7.4-3.5-11.2
	c-0.5-6.8-0.4-13.7,0.1-20.5c0.8-9.9,7.9-17.5,18.1-20.5c8.5-2.5,18.6,0.8,24.4,8c2.8,3.4,2.6,8-0.6,10.8c-3.2,2.8-7.6,2.6-10.7-0.8
	c-2.7-2.9-5.8-4.4-9.8-3.4c-3.5,0.9-6.4,4-6.5,7.7c-0.2,6.2-0.2,12.3,0,18.5c0.2,4.5,4.1,7.8,8.7,7.9
	C154.5,173.1,158.1,170.1,158.7,165.5z"/>
<path d="M84.1,147.6c0.5-0.8,0.9-1.6,1.5-2.3c6.2-6.4,12.3-12.9,18.6-19.2c4.3-4.3,10.6-3.2,12.6,2.2c1.2,3.1,0.5,5.9-1.8,8.3
	c-4.9,5.1-9.9,10.2-14.8,15.3c-1.2,1.3-2.4,2.5-3.8,4c0.6,0.6,1.1,1.2,1.7,1.8c5.6,5.8,11.2,11.5,16.7,17.3
	c3.2,3.4,3.4,7.7,0.7,10.8c-3,3.3-7.9,3.4-11.3,0c-6.3-6.4-12.6-12.9-18.8-19.4c-0.6-0.6-0.9-1.4-1.3-2.1c-0.3,0.2-0.6,0.3-0.8,0.5
	c0,5.3,0.1,10.6,0,15.9c-0.1,5.2-4.6,8.6-9.5,7.3c-3.3-0.8-5.5-3.8-5.5-7.7c0-13.5,0-27,0-40.5c0-2.9,0-5.8,0-8.7
	c0.1-4.3,3.3-7.5,7.5-7.5c4.1,0,7.5,3.2,7.5,7.4c0.1,5.3,0,10.7,0,16C83.5,147.2,83.8,147.4,84.1,147.6z"/>
</svg>
